<mxfile host="app.diagrams.net" modified="2024-01-01T21:05:17.533Z" agent="Mozilla/5.0 (Windows NT 10.0; Win64; x64; rv:121.0) Gecko/20100101 Firefox/121.0" version="22.1.16" etag="y1ko93gYaRtrxWQ4ipz6" type="github">
  <diagram name="Seite-1" id="HZ98omLTc8DrsUrWYmI7">
    <mxGraphModel>
      <root>
        <mxCell id="0" />
        <mxCell id="1" parent="0" />
      </root>
    </mxGraphModel>
  </diagram>
</mxfile>
